<mxfile host="app.diagrams.net" modified="2023-07-05T13:44:49.803Z" agent="Mozilla/5.0 (Macintosh; Intel Mac OS X 10_15_7) AppleWebKit/605.1.15 (KHTML, like Gecko) Version/16.2 Safari/605.1.15" version="21.5.2" etag="FD0dcUlEM7Wea56oGFRQ" type="github">
  <diagram name="Sivu-1" id="Zv9Kknl2v_uf_SEmtcB7">
    <mxGraphModel>
      <root>
        <mxCell id="0" />
        <mxCell id="1" parent="0" />
      </root>
    </mxGraphModel>
  </diagram>
</mxfile>
